<svg width="48" height="45" viewBox="0 0 48 45" fill="none" xmlns="http://www.w3.org/2000/svg">
<path d="M9.23951 17.4319C9.50352 16.3005 10.5122 15.5 11.6741 15.5H35.5239C36.6279 15.5 37.6012 16.2242 37.9184 17.2816L40.0184 24.2816C40.4997 25.8857 39.2985 27.5 37.6239 27.5H10.0408C8.43057 27.5 7.24029 26 7.60618 24.4319L9.23951 17.4319Z" stroke="#152C5B" stroke-width="3"/>
<line x1="16.5" y1="8.5" x2="16.5" y2="13.5" stroke="#152C5B" stroke-width="3" stroke-linecap="round"/>
<line x1="30.5" y1="8.5" x2="30.5" y2="13.5" stroke="#152C5B" stroke-width="3" stroke-linecap="round"/>
<path d="M13.5 43.5C14.6046 43.5 15.5 42.6046 15.5 41.5L15.5 29.5C15.5 28.3954 14.6046 27.5 13.5 27.5C12.3954 27.5 11.5 28.3954 11.5 29.5L11.5 41.5C11.5 42.6046 12.3954 43.5 13.5 43.5Z" stroke="#152C5B" stroke-width="3"/>
<path d="M33.5 43.5C34.6046 43.5 35.5 42.6046 35.5 41.5L35.5 29.5C35.5 28.3954 34.6046 27.5 33.5 27.5C32.3954 27.5 31.5 28.3954 31.5 29.5L31.5 41.5C31.5 42.6046 32.3954 43.5 33.5 43.5Z" stroke="#152C5B" stroke-width="3"/>
<path d="M12.5 1.5H20.5V3.5C20.5 5.70914 18.7091 7.5 16.5 7.5C14.2909 7.5 12.5 5.70914 12.5 3.5V1.5Z" stroke="#FF498B" stroke-width="3"/>
<path d="M26.5 1.5H34.5V3.5C34.5 5.70914 32.7091 7.5 30.5 7.5C28.2909 7.5 26.5 5.70914 26.5 3.5V1.5Z" stroke="#FF498B" stroke-width="3"/>
</svg>
