<svg width="24" height="32" viewBox="0 0 24 32" fill="none" xmlns="http://www.w3.org/2000/svg">
<mask id="path-1-inside-1" fill="white">
<path d="M8.55525 11.182C6.53966 11.1973 4.66167 12.1036 3.14064 13.5266L7.8992 12.4585C8.33121 12.3615 8.77925 12.3613 9.21118 12.458L13.9883 13.5266C12.4871 12.0791 10.6096 11.1665 8.55525 11.182Z"/>
</mask>
<path d="M17.3434 19.8897L18.818 19.6139L17.3434 19.8897ZM0.669898 30.2602L2.13292 29.928L0.669898 30.2602ZM2.72839 13.934L3.81059 14.9718L3.81059 14.9718L2.72839 13.934ZM12.9467 14.6068C14.399 16.0073 15.4707 18.0283 15.8687 20.1655L18.818 19.6139C18.3127 16.9006 16.9579 14.3056 15.0299 12.4465L12.9467 14.6068ZM15.8687 20.1655C15.9761 20.7419 16.0334 21.3214 16.0372 21.8941L19.0371 21.8714C19.032 21.113 18.9563 20.3564 18.818 19.6139L15.8687 20.1655ZM11.8539 39.6185C11.2013 41.0726 10.5314 42.2198 9.88103 42.9809C9.20392 43.7732 8.75268 43.9155 8.54511 43.9171L8.56539 46.917C10.0692 46.9057 11.2721 45.969 12.161 44.9288C13.0767 43.8573 13.8846 42.4184 14.5907 40.8451L11.8539 39.6185ZM8.54511 43.9171C8.34525 43.9186 7.91129 43.7929 7.25156 43.047C6.61534 42.3277 5.95469 41.2339 5.3057 39.8343C4.01402 37.0487 2.9109 33.3667 2.13292 29.928L-0.793129 30.5923C0.00846612 34.1353 1.16788 38.0444 2.58391 41.0982C3.28878 42.6183 4.09327 44.0063 5.00378 45.0356C5.89077 46.0384 7.0851 46.9282 8.56539 46.917L8.54511 43.9171ZM2.13292 29.928C1.37164 26.5632 0.954439 23.5772 0.943836 22.0083L-2.05608 22.031C-2.04328 23.9243 -1.56996 27.1588 -0.793129 30.5923L2.13292 29.928ZM0.943836 22.0083C0.926658 19.4665 2.04883 16.8088 3.81059 14.9718L1.64618 12.8962C-0.621657 15.261 -2.07887 18.6588 -2.05608 22.031L0.943836 22.0083ZM3.81059 14.9718C3.92638 14.851 4.04456 14.7343 4.16494 14.6216L2.11633 12.4317C1.95568 12.582 1.79891 12.7369 1.64618 12.8962L3.81059 14.9718ZM3.14064 13.5266L1.09203 11.3367L-6.95733 18.8675L3.79543 16.4538L3.14064 13.5266ZM13.9883 13.5266L13.3311 16.4543L23.7697 18.7895L16.0716 11.3663L13.9883 13.5266ZM7.8992 12.4585L7.24441 9.53134L7.24441 9.53134L7.8992 12.4585ZM9.21118 12.458L8.554 15.3856L8.554 15.3856L9.21118 12.458ZM5.18925 15.7166C6.28964 14.6871 7.47434 14.1903 8.57552 14.182L8.53498 8.18211C5.60497 8.20428 3.0337 9.5201 1.09203 11.3367L5.18925 15.7166ZM8.57552 14.182C9.68389 14.1736 10.8398 14.6599 11.905 15.687L16.0716 11.3663C14.1344 9.49825 11.5354 8.15941 8.53498 8.18211L8.57552 14.182ZM3.79543 16.4538L8.554 15.3856L7.24441 9.53134L2.48585 10.5995L3.79543 16.4538ZM8.554 15.3856L13.3311 16.4543L14.6455 10.599L9.86835 9.53028L8.554 15.3856ZM8.554 15.3856L8.554 15.3856L9.86835 9.53028C9.0045 9.33703 8.10842 9.33739 7.24441 9.53134L8.554 15.3856Z" fill="#152C5B" mask="url(#path-1-inside-1)"/>
<mask id="path-3-inside-2" fill="white">
<path d="M8.40402 6.26538C5.4756 6.28754 2.74553 7.37004 0.533152 9.0669L7.86039 7.70976C8.21848 7.64344 8.5856 7.64285 8.9438 7.70802L16.2933 9.04535C14.1149 7.32528 11.3888 6.24279 8.40402 6.26538Z"/>
</mask>
<path d="M21.1565 16.6126L22.6196 16.2809L21.1565 16.6126ZM-3.0862 28.9897L-4.53261 29.3882L-3.0862 28.9897ZM-0.0665184 9.55258L0.907434 10.6926L0.907438 10.6926L-0.0665184 9.55258ZM15.3632 10.2229C17.5611 11.9583 19.121 14.4106 19.6934 16.9443L22.6196 16.2809C21.8881 13.0429 19.931 10.0056 17.2235 7.86779L15.3632 10.2229ZM19.6934 16.9443C19.8482 17.6297 19.93 18.3174 19.9346 18.9959L22.9345 18.9732C22.9284 18.0674 22.8193 17.1649 22.6196 16.2809L19.6934 16.9443ZM13.8183 40.113C12.8668 41.8464 11.877 43.2419 10.8907 44.1874C9.89722 45.1399 9.04385 45.5099 8.33313 45.5152L8.3534 48.5152C10.1291 48.5017 11.6809 47.5842 12.9659 46.3522C14.2581 45.1134 15.42 43.4276 16.4479 41.5549L13.8183 40.113ZM8.33313 45.5152C7.63795 45.5205 6.80761 45.1792 5.83847 44.2816C4.87392 43.3883 3.90093 42.0587 2.95983 40.3928C1.08129 37.0676 -0.516095 32.6808 -1.63979 28.5912L-4.53261 29.3882C-3.37379 33.6056 -1.69749 38.2501 0.347555 41.8701C1.36824 43.6768 2.51952 45.2984 3.79905 46.4834C5.07398 47.6642 6.60754 48.5284 8.3534 48.5152L8.33313 45.5152ZM-1.63979 28.5912C-2.74034 24.5858 -3.34027 21.0348 -3.35286 19.1721L-6.35277 19.1948C-6.33751 21.4531 -5.65467 25.3045 -4.53261 29.3882L-1.63979 28.5912ZM-3.35286 19.1721C-3.37311 16.1752 -1.75328 12.9664 0.907434 10.6926L-1.04047 8.41257C-4.24167 11.1482 -6.38009 15.1524 -6.35277 19.1948L-3.35286 19.1721ZM0.907438 10.6926C1.08274 10.5428 1.26214 10.3974 1.44542 10.2569L-0.379115 7.87694C-0.604626 8.0499 -0.825167 8.22858 -1.04047 8.41257L0.907438 10.6926ZM0.533152 9.0669L-1.29138 6.68697L1.0772 12.0167L0.533152 9.0669ZM16.2933 9.04535L15.754 11.9969L18.1536 6.69022L16.2933 9.04535ZM7.86039 7.70976L8.40443 10.6596L8.40444 10.6596L7.86039 7.70976ZM8.9438 7.70802L8.40443 10.6596L8.9438 7.70802ZM2.35769 11.4468C4.12169 10.0939 6.23128 9.2819 8.42429 9.26531L8.38374 3.26545C4.71992 3.29317 1.36938 4.64621 -1.29138 6.68697L2.35769 11.4468ZM8.42429 9.26531C10.6501 9.24847 12.7262 10.0527 14.4331 11.4005L18.1536 6.69022C15.5036 4.59784 12.1275 3.23712 8.38374 3.26545L8.42429 9.26531ZM1.0772 12.0167L8.40443 10.6596L7.31634 4.75993L-0.0108961 6.11707L1.0772 12.0167ZM8.40443 10.6596L15.754 11.9969L16.8327 6.09378L9.48316 4.75646L8.40443 10.6596ZM8.40444 10.6596L8.40443 10.6596L9.48316 4.75646C8.76677 4.6261 8.03252 4.62728 7.31634 4.75993L8.40444 10.6596Z" fill="#152C5B" mask="url(#path-3-inside-2)"/>
<mask id="path-5-inside-3" fill="white">
<path d="M8.50339 0.114816C5.0705 0.140791 1.87012 1.40978 -0.723389 3.39896L7.95941 1.79074C8.3175 1.72441 8.68463 1.72383 9.04282 1.789L17.7518 3.37369C15.1981 1.35731 12.0024 0.08834 8.50339 0.114816Z"/>
</mask>
<path d="M23.4527 12.2445L21.9896 12.5762L23.4527 12.2445ZM-4.96625 26.7538L-3.51984 26.3553L-4.96625 26.7538ZM-1.42637 3.96831L-0.452412 5.10832L-0.452409 5.10831L-1.42637 3.96831ZM16.8217 4.55126C19.442 6.62023 21.3049 9.54542 21.9896 12.5762L24.9159 11.9129C24.072 8.17772 21.812 4.66759 18.6819 2.19613L16.8217 4.55126ZM21.9896 12.5762C22.175 13.3968 22.2733 14.2215 22.2788 15.0364L25.2787 15.0137C25.2716 13.9715 25.1461 12.932 24.9159 11.9129L21.9896 12.5762ZM15.0769 39.9175C13.9549 41.9616 12.7797 43.6225 11.5972 44.7562C10.4075 45.8968 9.34692 46.3777 8.42203 46.3847L8.44231 49.3846C10.4322 49.3695 12.1912 48.341 13.6724 46.921C15.1608 45.494 16.508 43.5428 17.7065 41.3595L15.0769 39.9175ZM8.42203 46.3847C7.51659 46.3915 6.48265 45.9463 5.3202 44.8697C4.16236 43.7974 3.0064 42.2136 1.89632 40.2487C-0.320175 36.3252 -2.19954 31.1605 -3.51984 26.3553L-6.41265 27.1523C-5.05723 32.0853 -3.09895 37.5077 -0.715952 41.7259C0.473714 43.8317 1.80796 45.7075 3.28079 47.0715C4.74901 48.4313 6.48618 49.3994 8.44231 49.3846L8.42203 46.3847ZM-3.51984 26.3553C-4.81183 21.6532 -5.52225 17.4646 -5.53724 15.2469L-8.53716 15.2696C-8.5195 17.8829 -7.72616 22.3719 -6.41265 27.1523L-3.51984 26.3553ZM-5.53724 15.2469C-5.56159 11.6437 -3.61805 7.81359 -0.452412 5.10832L-2.40032 2.8283C-6.10644 5.99545 -8.56858 10.6209 -8.53716 15.2696L-5.53724 15.2469ZM-0.452409 5.10831C-0.243467 4.92975 -0.0296077 4.7565 0.188877 4.58893L-1.63565 2.20899C-1.89638 2.40896 -2.15137 2.61555 -2.40032 2.8283L-0.452409 5.10831ZM-0.723389 3.39896L-2.54793 1.01903L-0.17934 6.34879L-0.723389 3.39896ZM17.7518 3.37369L17.2124 6.32526L19.612 1.01857L17.7518 3.37369ZM7.95941 1.79074L8.50346 4.74057L8.50346 4.74057L7.95941 1.79074ZM9.04282 1.789L8.50346 4.74057L9.04282 1.789ZM1.10115 5.77889C3.24628 4.13361 5.82618 3.13516 8.52366 3.11475L8.48311 -2.88512C4.31481 -2.85358 0.49396 -1.31405 -2.54793 1.01903L1.10115 5.77889ZM8.52366 3.11475C11.2637 3.09401 13.8094 4.08475 15.8916 5.72882L19.612 1.01857C16.5868 -1.37013 12.741 -2.91733 8.48311 -2.88512L8.52366 3.11475ZM-0.17934 6.34879L8.50346 4.74057L7.41536 -1.15909L-1.26744 0.449128L-0.17934 6.34879ZM8.50346 4.74057L17.2124 6.32526L18.2912 0.422125L9.58218 -1.16256L8.50346 4.74057ZM8.50346 4.74057L9.58218 -1.16256C8.86579 -1.29292 8.13155 -1.29174 7.41536 -1.15909L8.50346 4.74057Z" fill="#152C5B" mask="url(#path-5-inside-3)"/>
<path d="M10.6875 19.0919C10.6875 20.5474 9.59268 21.5806 8.41797 21.5806C7.24327 21.5806 6.14844 20.5474 6.14844 19.0919C6.14844 17.6365 7.24327 16.6033 8.41797 16.6033C9.59268 16.6033 10.6875 17.6365 10.6875 19.0919Z" stroke="#FF498B" stroke-width="3"/>
</svg>
