<svg width="48" height="48" viewBox="0 0 48 48" fill="none" xmlns="http://www.w3.org/2000/svg">
<g clip-path="url(#clip0)">
<rect width="48" height="48" fill="white"/>
<path d="M30.5 30C30.5 33.5899 27.5899 36.5 24 36.5C20.4101 36.5 17.5 33.5899 17.5 30C17.5 26.4101 20.4101 23.5 24 23.5C27.5899 23.5 30.5 26.4101 30.5 30Z" stroke="#FF498B" stroke-width="3"/>
<line x1="40.5" y1="20.5" x2="35.5" y2="20.5" stroke="#152C5B" stroke-width="3" stroke-linecap="round"/>
<mask id="path-4-inside-1" fill="white">
<path fill-rule="evenodd" clip-rule="evenodd" d="M18.919 7C18.0691 7 17.312 7.53712 17.0312 8.3393L15.05 14H8C3.58172 14 0 17.5817 0 22V39C0 43.4183 3.58172 47 8 47H40C44.4183 47 48 43.4183 48 39V22C48 17.5817 44.4183 14 40 14H34.1L32.4276 8.4253C32.1738 7.57934 31.3952 7 30.5119 7H18.919Z"/>
</mask>
<path d="M17.0312 8.3393L19.8628 9.33035V9.33035L17.0312 8.3393ZM15.05 14V17H17.1784L17.8816 14.9911L15.05 14ZM34.1 14L31.2265 14.862L31.8679 17H34.1V14ZM32.4276 8.4253L29.5541 9.28734L29.5541 9.28735L32.4276 8.4253ZM19.8628 9.33035C19.7224 9.73144 19.3439 10 18.919 10V4C16.7942 4 14.9016 5.34281 14.1997 7.34825L19.8628 9.33035ZM17.8816 14.9911L19.8628 9.33035L14.1997 7.34825L12.2184 13.0089L17.8816 14.9911ZM8 17H15.05V11H8V17ZM3 22C3 19.2386 5.23858 17 8 17V11C1.92487 11 -3 15.9249 -3 22H3ZM3 39V22H-3V39H3ZM8 44C5.23858 44 3 41.7614 3 39H-3C-3 45.0751 1.92487 50 8 50V44ZM40 44H8V50H40V44ZM45 39C45 41.7614 42.7614 44 40 44V50C46.0751 50 51 45.0751 51 39H45ZM45 22V39H51V22H45ZM40 17C42.7614 17 45 19.2386 45 22H51C51 15.9249 46.0751 11 40 11V17ZM34.1 17H40V11H34.1V17ZM29.5541 9.28735L31.2265 14.862L36.9735 13.138L35.3011 7.56326L29.5541 9.28735ZM30.5119 10C30.0703 10 29.681 9.71033 29.5541 9.28734L35.3011 7.56327C34.6666 5.44834 32.72 4 30.5119 4V10ZM18.919 10H30.5119V4H18.919V10Z" fill="#152C5B" mask="url(#path-4-inside-1)"/>
</g>
<defs>
<clipPath id="clip0">
<rect width="48" height="48" fill="white"/>
</clipPath>
</defs>
</svg>
