<svg width="48" height="48" viewBox="0 0 48 48" fill="none" xmlns="http://www.w3.org/2000/svg">
<g clip-path="url(#clip0)">
<rect width="48" height="48" fill="white"/>
<path d="M31.5 41.5C31.5 41.8434 31.3294 42.3286 30.681 42.9324C30.0305 43.5384 29.0073 44.1531 27.6175 44.7006C24.8468 45.7921 20.9167 46.5 16.5 46.5C12.0833 46.5 8.15321 45.7921 5.38252 44.7006C3.99269 44.1531 2.96955 43.5384 2.31898 42.9324C1.6706 42.3286 1.5 41.8434 1.5 41.5C1.5 41.1566 1.6706 40.6714 2.31898 40.0676C2.96955 39.4616 3.99269 38.8469 5.38252 38.2994C8.15321 37.2079 12.0833 36.5 16.5 36.5C20.9167 36.5 24.8468 37.2079 27.6175 38.2994C29.0073 38.8469 30.0305 39.4616 30.681 40.0676C31.3294 40.6714 31.5 41.1566 31.5 41.5Z" stroke="#152C5B" stroke-width="3"/>
<path d="M16.1713 41.5C15.7946 41.5027 15.3116 41.3475 14.7032 40.8572C14.0903 40.3632 13.4359 39.5949 12.7646 38.5554C11.4225 36.4772 10.1703 33.5648 9.09375 30.3603C6.93361 23.9304 5.61862 16.7538 5.59649 13.6593C5.57566 10.7471 6.78448 7.70547 8.77456 5.38673C10.7635 3.06936 13.4131 1.60434 16.1928 1.58447C18.9621 1.56466 21.5339 2.98219 23.4619 5.25803C25.3934 7.53805 26.5749 10.5687 26.596 13.5091C26.618 16.5942 25.3478 23.7834 23.2174 30.2471C22.1562 33.4666 20.9156 36.3982 19.5805 38.4973C18.9126 39.5473 18.2595 40.3272 17.6457 40.8322C17.0356 41.3341 16.5495 41.4973 16.1713 41.5Z" fill="white" stroke="#152C5B" stroke-width="3"/>
<path d="M19.5 16C19.5 17.933 17.933 19.5 16 19.5C14.067 19.5 12.5 17.933 12.5 16C12.5 14.067 14.067 12.5 16 12.5C17.933 12.5 19.5 14.067 19.5 16Z" stroke="#FF498B" stroke-width="3"/>
</g>
<defs>
<clipPath id="clip0">
<rect width="48" height="48" fill="white"/>
</clipPath>
</defs>
</svg>
